<?xml version="1.0" encoding="UTF-8"?><svg id="Layer_2" xmlns="http://www.w3.org/2000/svg" viewBox="0 0 228.45 315.52"><defs><style>.cls-1{fill:#ecc368;}.cls-2{fill:#bf7255;}.cls-3{fill:#6f907c;}.cls-4{fill:#846f9c;}</style></defs><g id="Layer_3"><path class="cls-4" d="m105.68,11.38c0-6.87-6.04-12.12-12.86-11.29C40.52,6.43,0,50.98,0,104.99s40.52,98.56,92.82,104.9c6.82.83,12.86-4.42,12.86-11.29V11.38Z"/><path class="cls-3" d="m122.77,304.15c0,6.87,6.04,12.12,12.86,11.29,52.3-6.34,92.82-50.89,92.82-104.9s-40.52-98.56-92.82-104.9c-6.82-.83-12.86,4.42-12.86,11.29v187.22Z"/><rect class="cls-2" x="122.77" y=".41" width="89.37" height="88.22" rx="8" ry="8"/><path class="cls-1" d="m105.07,246.08l-83.13-47.6c-5.33-3.05-11.98.8-11.98,6.94v95.2c0,6.15,6.64,10,11.98,6.94l83.13-47.6c5.37-3.07,5.37-10.81,0-13.88Z"/></g></svg>